<?xml version="1.0" encoding="utf-8"?>
<!-- Generator: Adobe Illustrator 17.1.0, SVG Export Plug-In . SVG Version: 6.00 Build 0)  -->
<!DOCTYPE svg [
	<!ENTITY ns_extend "http://ns.adobe.com/Extensibility/1.0/">
	<!ENTITY ns_ai "http://ns.adobe.com/AdobeIllustrator/10.0/">
	<!ENTITY ns_graphs "http://ns.adobe.com/Graphs/1.0/">
	<!ENTITY ns_vars "http://ns.adobe.com/Variables/1.0/">
	<!ENTITY ns_imrep "http://ns.adobe.com/ImageReplacement/1.0/">
	<!ENTITY ns_sfw "http://ns.adobe.com/SaveForWeb/1.0/">
	<!ENTITY ns_custom "http://ns.adobe.com/GenericCustomNamespace/1.0/">
	<!ENTITY ns_adobe_xpath "http://ns.adobe.com/XPath/1.0/">
]>
<svg version="1.2" baseProfile="tiny" id="Слой_1" xmlns:x="&ns_extend;" xmlns:i="&ns_ai;" xmlns:graph="&ns_graphs;"
	 xmlns="http://www.w3.org/2000/svg" xmlns:xlink="http://www.w3.org/1999/xlink" x="0px" y="0px" viewBox="0 0 700 700"
	 xml:space="preserve">
<metadata>
	<sfw  xmlns="&ns_sfw;">
		<slices></slices>
		<sliceSourceBounds  height="1383.8" width="1390.1" y="-1394.5" x="15.3" bottomLeftOrigin="true"></sliceSourceBounds>
	</sfw>
</metadata>
<g>
	<g>
		<path fill="none" stroke="#000000" stroke-width="7.1377" stroke-miterlimit="10" d="M124.4,416.8c1.2-5.7,2-11.5,3.8-17
			c9.1-27.7,33.7-47.3,62.9-48.9c18.7-1,37.4-0.3,56.1-0.3c0.6,0,1.2,0.2,2.1,0.3c0.5,8.9,2.3,17.5,5.9,25.7
			c3.6,8.2,8.8,15.4,15.1,21.7c-45.9,17.7-64.1,52-60.4,99.8c-29.6-1.6-57.8-7.6-85.4-16.5C124.4,460,124.4,438.4,124.4,416.8z"/>
		<path fill="none" stroke="#000000" stroke-width="7.1377" stroke-miterlimit="10" d="M600.2,424.5c-4,1.6-8,3.3-12,4.9
			c-14.5,5.5-29.5,8.8-44.9,10.6c-7.4,0.9-14.7,1.5-22.7,2.2c0-1.7,0-2.9,0-4c-0.4-9.5,0.4-19.2-1.3-28.4
			c-6-32.8-25.3-54.9-56.4-66.7c-0.9-0.3-1.8-0.6-3.1-1.1c13.2-13.4,20.4-29.3,21.1-48c0.7-0.1,1.1-0.3,1.6-0.3
			c16,0,31.9-0.3,47.9,0.1c35.1,1,63.7,26.7,69.1,61.4c0.3,1.6,0.5,3.3,0.8,4.9C600.2,381.7,600.2,403.1,600.2,424.5z"/>
		<path fill="none" stroke="#000000" stroke-width="7.1377" stroke-miterlimit="10" d="M223.7,505.9c0-11.6-1.3-23.3,0.3-34.7
			c3.8-28.7,20.2-48.1,47.1-58.6c7.8-3,16.1-4.2,24.5-4.2c15.9,0,31.7,0,47.6,0c32.8,0.1,61.7,22.7,69.2,54.6
			c1.8,7.7,2.1,15.9,2.3,23.9c0.3,16.3,0,32.7,0.1,49c0,2-0.6,3-2.3,3.8c-14.8,7.2-30.7,11.1-46.8,13.8c-22.6,3.7-45.4,3.9-68.1,1.8
			c-24.7-2.3-48.8-7.7-72.5-15.1c-1.8-0.6-1.8-1.7-1.8-3.1c0-10.4,0-20.8,0-31.2C223.2,505.9,223.5,505.9,223.7,505.9z"/>
		<path fill="none" stroke="#000000" stroke-width="7.1377" stroke-miterlimit="10" d="M367.1,398.7c13.3-13.4,20.4-29.4,21.3-48.2
			c1.5,0,2.7,0,3.9,0c16.1,0.1,32.3-0.4,48.4,0.4c32.3,1.6,59.9,26.3,65.5,58.1c1.2,7,1.2,14.2,1.3,21.3c0.2,15.8,0,31.7,0.1,47.6
			c0,2.2-0.7,3.3-2.7,4.2c-15.4,7.4-31.8,11.4-48.6,13.8c-9.2,1.3-18.5,2-28.3,3c0-1.9,0-3.1,0-4.4c-0.1-11.6,0.6-23.2-2.5-34.6
			c-8.2-29.8-26.9-49.8-55.9-60.4C368.9,399.3,368.1,399,367.1,398.7z"/>
		<path fill="none" stroke="#000000" stroke-width="7.1377" stroke-miterlimit="10" d="M377,180.7c0.4,32.8-25,60.6-58.8,61.8
			c-35.6,1.2-61.8-26.8-63.1-58.3c-1.4-34.7,25.8-62,57.9-63.5C348.8,118.9,376.6,147.3,377,180.7z"/>
		<path fill="none" stroke="#000000" stroke-width="7.1377" stroke-miterlimit="10" d="M262.6,348.5c-0.1-30.9,25-56,56.1-56.2
			c30.4-0.2,55,24.2,56.3,53.6c1.4,31.5-23.2,58.3-55.2,58.8C288.1,405,262.7,379.9,262.6,348.5z"/>
		<path fill="none" stroke="#000000" stroke-width="7.1377" stroke-miterlimit="10" d="M163.8,290c0.5-27.2,19.5-49.8,46.3-54.9
			c33.8-6.4,66.2,20.3,66.3,54.6c0,2.6-0.7,4.3-2.7,6.1c-12.4,10.6-20.1,24-23.3,40c-0.3,1.3-1.5,2.8-2.7,3.5
			c-29.3,17-67.8,3.3-79.8-28.4c-1.3-3.3-2.2-6.8-2.9-10.3C164.3,297.1,164.2,293.5,163.8,290z"/>
		<path fill="none" stroke="#000000" stroke-width="7.1377" stroke-miterlimit="10" d="M409.8,346.6c-5.4,0-12.8-1.4-19.7-4.6
			c-1-0.5-2.1-1.8-2.3-2.9c-3.2-20.8-13.6-36.8-30.7-48.8c-0.9-0.6-1.4-2.3-1.3-3.5c1.8-20.9,11.8-36.8,30.5-46.5
			c34.5-17.8,75.8,4,81.2,42.4C472.1,316.3,445.8,346.6,409.8,346.6z"/>
		<path fill="none" stroke="#000000" stroke-width="7.1377" stroke-miterlimit="10" d="M561.1,233.9c-1,32.1-26.6,57-58.2,56.2
			c-7.1-0.2-13.9-1.7-20.4-4.7c-0.9-0.4-1.9-1.7-2.1-2.7c-3-20.7-13.4-36.7-30.4-48.6c-0.9-0.6-1.5-2.5-1.5-3.7
			c1.1-26,22-48.7,47.9-52c28.6-3.6,54,12.7,62.1,40.2C559.9,223.4,560.2,228.7,561.1,233.9z"/>
		<path fill="none" stroke="#000000" stroke-width="7.1377" stroke-miterlimit="10" d="M357.6,248.7c-7.4,10.4-11.3,22.1-12.3,35.2
			c-19.9-7.8-39.3-7-58.4,2.8c-0.4-14-4.5-26.6-12.3-37.9C281.7,245.8,350.8,245.8,357.6,248.7z"/>
	</g>
</g>
<circle fill="none" stroke="#000000" stroke-width="24" stroke-miterlimit="10" cx="352.5" cy="347.8" r="325.2"/>
</svg>
