<?xml version="1.0" encoding="utf-8"?>
<!-- Generator: Adobe Illustrator 17.1.0, SVG Export Plug-In . SVG Version: 6.00 Build 0)  -->
<!DOCTYPE svg [
	<!ENTITY ns_extend "http://ns.adobe.com/Extensibility/1.0/">
	<!ENTITY ns_ai "http://ns.adobe.com/AdobeIllustrator/10.0/">
	<!ENTITY ns_graphs "http://ns.adobe.com/Graphs/1.0/">
	<!ENTITY ns_vars "http://ns.adobe.com/Variables/1.0/">
	<!ENTITY ns_imrep "http://ns.adobe.com/ImageReplacement/1.0/">
	<!ENTITY ns_sfw "http://ns.adobe.com/SaveForWeb/1.0/">
	<!ENTITY ns_custom "http://ns.adobe.com/GenericCustomNamespace/1.0/">
	<!ENTITY ns_adobe_xpath "http://ns.adobe.com/XPath/1.0/">
]>
<svg version="1.2" baseProfile="tiny" id="Слой_1" xmlns:x="&ns_extend;" xmlns:i="&ns_ai;" xmlns:graph="&ns_graphs;"
	 xmlns="http://www.w3.org/2000/svg" xmlns:xlink="http://www.w3.org/1999/xlink" x="0px" y="0px" viewBox="0 0 700 700"
	 overflow="scroll" xml:space="preserve">
<metadata>
	<sfw  xmlns="&ns_sfw;">
		<slices></slices>
		<sliceSourceBounds  height="1383.8" width="1390.1" y="-1394.5" x="15.3" bottomLeftOrigin="true"></sliceSourceBounds>
	</sfw>
</metadata>
<g>
	<g>
		<path d="M695.4,118.6c0,146.7,0,293.3,0,440c-0.2,0.6-0.6,1.2-0.7,1.8c-4.2,26.8-26.8,47.6-60.8,46.6c-22.2-0.7-44.5-0.1-66.8-0.1
			c-167.5,0-335,0-502.5,0c-15.3,0-29.3-3.3-41.2-13.6c-10.7-9.3-16-21.3-18.9-34.7c0-146.7,0-293.3,0-440c0.4-1.7,0.9-3.4,1.3-5.1
			c5.7-23.8,23.7-40.6,48.1-42.2c20.6-1.4,41.3-0.9,62-0.9c173.1-0.1,346.3,0,519.4,0c15.3,0,29.3,3.3,41.2,13.6
			C687.2,93.1,692.4,105.2,695.4,118.6z M349.2,576c95.3,0,190.7,0,286,0c20.6,0,29.3-8.6,29.3-28.9c0-139,0-278,0-416.9
			c0-20.4-8.6-29-29.2-29c-190.2,0-380.5,0-570.7,0c-20.6,0-29.3,8.5-29.3,28.9c0,139,0,278,0,416.9c0,20.4,8.7,29,29.2,29
			C159.4,576,254.3,576,349.2,576z"/>
		<path d="M435.4,309.5c20.8-16.3,41.2-32.3,61.8-48.5c-7.6-17.2-9.8-34.6-4.3-52.2c8.5-27,26.6-44.8,54.3-50.8
			c27.9-6.1,52.1,2.1,70.9,24c19,22.2,23.1,47.6,12.2,74.3c-10.9,26.6-31.7,42.1-60.5,45.3c-17,1.9-33.2-2.1-47.2-12.2
			c-5-3.6-8-3.2-12.6,0.5c-22.1,17.8-44.5,35-66.6,52.8c-2.5,2-4.8,6.1-4.9,9.3c-1.2,28-7,54.8-19.9,79.8
			c-30.8,59.6-79.4,95.7-146,105c-92.8,13-179.9-43-208.3-132.3c-28.2-88.8,14.2-187.6,97.9-228.3c101.6-49.4,221-3.4,262.9,101.3
			C429.2,287.6,431.9,298.3,435.4,309.5z M405.5,372.2c-4,3.1-6.8,5.3-9.6,7.5c-11.9,9.3-23.6,18.8-35.6,27.8
			c-9.5,7.1-20.5,4.3-24.5-5.8c-2.7-6.9-0.5-13.5,6.9-19.4c19.9-15.7,40-31.3,59.8-47.2c2-1.6,4.2-5.3,3.7-7.5
			c-3.2-14-5.6-28.4-11-41.5c-27.8-67.6-97.7-108.6-171.9-97.3c-47.5,7.3-85.1,31.2-110.8,71.6c-38.3,60.1-35,131.9,9.8,187.3
			c39.6,48.9,92.5,68.2,154.4,57.1c53.2-9.6,91.6-40.7,115.5-89.2C398.8,402.5,403.3,388.5,405.5,372.2z M523.2,240.6
			c9.9-7.7,19.2-15.1,28.6-22.3c7.8-5.9,16-5.7,21.9,0.2c6.9,6.9,5.8,16.8-2.9,23.9c-9.3,7.6-18.9,15-28.5,22.5
			c14.7,10.4,37.5,7.3,50.8-6.5c14.6-15.1,16-38.6,3.3-54.8c-13.1-16.8-35.4-21.4-53.7-11.3C525.4,201.9,516.5,223.1,523.2,240.6z"
			/>
		<path d="M499.9,518c-0.4,5.7-0.4,11.8-1.5,17.7c-1.3,6.8-7.2,11.2-14,11.4c-6.8,0.2-14.1-4.3-14.7-11.3c-0.9-12.2-1-24.6,0-36.8
			c0.5-7,7.7-11.5,14.6-11.4c7,0.2,13,4.7,14.2,11.9C499.6,505.5,499.5,511.6,499.9,518z"/>
		<path d="M627.8,517.8c0,4.5,0.2,9,0,13.5c-0.5,9.1-6.2,15.2-14.4,15.7c-8.1,0.6-15.2-4.9-15.9-13.9c-0.8-10.5-0.8-21.1,0-31.6
			c0.7-8.7,7.5-14.1,15.4-13.8c8.2,0.3,14.3,6.3,14.9,15.3C628.1,507.9,627.8,512.9,627.8,517.8z"/>
		<path d="M563.2,517c0,5.6,0.4,11.2-0.1,16.8c-0.7,7.7-7,13.1-14.5,13.3c-7.7,0.2-14.7-5.3-15.1-13.2c-0.6-10.9-0.6-22,0-32.9
			c0.4-8,7.4-13.4,15.1-13.2c7.5,0.2,13.5,5.5,14.6,13.2c0.1,0.9,0.3,1.8,0.3,2.7c0,4.5,0,9,0,13.5C563.4,517,563.3,517,563.2,517z"
			/>
		<path d="M329.9,347.6c-0.1,45.7-37.2,82.7-82.9,82.7c-45.6-0.1-82.8-37.2-83-82.8c-0.2-45.6,37.8-83.4,83.4-83.1
			C293.1,264.7,330.1,302,329.9,347.6z M299.1,347.5c0.1-28.4-23.3-52-51.8-52.1c-28.6-0.2-52.7,24-52.4,52.3
			c0.4,28.6,23.8,51.8,52.2,51.7C275.8,399.3,299,376.1,299.1,347.5z"/>
		<path d="M109.1,347.7c1.8-24.9,9.6-46.6,26.2-64.8c4.7-5.2,10.4-7.9,17.5-5.4c6.1,2.1,10.5,6.7,10,12.9c-0.5,5.2-3,10.8-6.2,14.9
			c-8.8,11.4-14,23.8-14.7,38.2C140.9,360,145,375,155.5,388c1.4,1.7,2.8,3.5,4.1,5.4c5.2,7.6,4.5,15.9-1.7,21.2
			c-6.5,5.5-16,5.6-21.6-1.8c-7.3-9.5-14.4-19.6-19-30.6C112.9,371.4,111.7,359.2,109.1,347.7z"/>
		<path d="M247.3,358.8c-6,0.1-11.2-4.7-11.5-10.8c-0.3-6.2,4.9-11.8,11.1-12c6-0.1,11.2,4.8,11.4,10.9
			C258.6,353.3,253.7,358.6,247.3,358.8z"/>
	</g>
</g>
</svg>
