<?xml version="1.0" encoding="utf-8"?>
<!-- Generator: Adobe Illustrator 17.1.0, SVG Export Plug-In . SVG Version: 6.00 Build 0)  -->
<!DOCTYPE svg [
	<!ENTITY ns_extend "http://ns.adobe.com/Extensibility/1.0/">
	<!ENTITY ns_ai "http://ns.adobe.com/AdobeIllustrator/10.0/">
	<!ENTITY ns_graphs "http://ns.adobe.com/Graphs/1.0/">
	<!ENTITY ns_vars "http://ns.adobe.com/Variables/1.0/">
	<!ENTITY ns_imrep "http://ns.adobe.com/ImageReplacement/1.0/">
	<!ENTITY ns_sfw "http://ns.adobe.com/SaveForWeb/1.0/">
	<!ENTITY ns_custom "http://ns.adobe.com/GenericCustomNamespace/1.0/">
	<!ENTITY ns_adobe_xpath "http://ns.adobe.com/XPath/1.0/">
]>
<svg version="1.2" baseProfile="tiny" id="Слой_1" xmlns:x="&ns_extend;" xmlns:i="&ns_ai;" xmlns:graph="&ns_graphs;"
	 xmlns="http://www.w3.org/2000/svg" xmlns:xlink="http://www.w3.org/1999/xlink" x="0px" y="0px" viewBox="0 0 700 700"
	 overflow="scroll" xml:space="preserve">
<metadata>
	<sfw  xmlns="&ns_sfw;">
		<slices></slices>
		<sliceSourceBounds  height="1383.8" width="1390.1" y="-1394.5" x="15.3" bottomLeftOrigin="true"></sliceSourceBounds>
	</sfw>
</metadata>
<g>
	<g>
		<path fill="none" stroke="#000000" stroke-width="28.371" stroke-miterlimit="10" d="M373.7,670.3c-16.1,0-32.2,0-48.2,0
			c-6.9-1.1-13.8-2.2-20.7-3.2C130.7,642.4,8.6,479.9,33.6,306.1C58,137.4,209.2,17.2,379.3,34.5C507.7,47.5,596.9,116.8,646,235.6
			c11.9,28.7,15.4,60.9,22.7,91.5c0,16.1,0,32.2,0,48.2c-0.8,3.2-1.9,6.3-2.3,9.5c-12.4,126.2-101.8,235-224,271.3
			C420.1,662.7,396.6,665.7,373.7,670.3z M388.9,345.6c-1.8,1.1-3.5,2.2-5.3,3.2c-51.1-51.2-102.1-102.4-153.3-153.7
			c0,104.2,0,208.2,0,316.8c53.8-54,104.8-105.3,158.7-159.4c0,55,0,106.2,0,157.4c27.9,0,54.1,0,79.7,0c0-106.9,0-212.5,0-318
			c-26.9,0-52.7,0-79.7,0C388.9,243.9,388.9,294.8,388.9,345.6z"/>
	</g>
</g>
</svg>
